<svg xmlns="http://www.w3.org/2000/svg" viewBox="0 0 600 450">
<defs><linearGradient id="g" x1="0" y1="450" x2="600" y2="0"><stop stop-color="#0B332B"/><stop offset="1" stop-color="#2F8062"/></linearGradient></defs>
<rect width="600" height="450" fill="url(#g)"/>
<polygon points="34,44 280,22 248,176 62,206" fill="#EFE3D1"/><polygon points="356,18 570,48 548,166 326,146" fill="#F2C14E"/>
<rect x="86" y="110" width="400" height="252" rx="18" fill="#F6F3EB"/>
<rect x="112" y="139" width="154" height="82" rx="10" fill="#FFFFFF"/><rect x="294" y="139" width="164" height="82" rx="10" fill="#FFFFFF"/>
<rect x="126" y="187" width="18" height="21" fill="#00BFC2"/><rect x="154" y="169" width="18" height="39" fill="#F2C14E"/><rect x="182" y="153" width="18" height="55" fill="#1E5F4E"/><rect x="210" y="178" width="18" height="30" fill="#FF6B4A"/>
<path d="M315 193l34-25 31 11 46-37" fill="none" stroke="#00BFC2" stroke-width="7" stroke-linecap="round" stroke-linejoin="round"/>
<circle cx="315" cy="193" r="5" fill="#0B332B"/><circle cx="349" cy="168" r="5" fill="#0B332B"/><circle cx="380" cy="179" r="5" fill="#0B332B"/><circle cx="426" cy="142" r="5" fill="#0B332B"/>
<path d="M144 295h242" stroke="#0B332B" stroke-width="5" stroke-linecap="round"/><path d="M144 323h174" stroke="#2F8062" stroke-width="5" stroke-linecap="round"/>
<circle cx="423" cy="292" r="36" fill="none" stroke="#111111" stroke-width="8"/><path d="M450 318l42 37" stroke="#111111" stroke-width="11" stroke-linecap="round"/>
<path d="M136 276c40-48 88 23 129-30 34-44 82-12 118-58" fill="none" stroke="#00BFC2" stroke-width="4" stroke-dasharray="8 10" stroke-linecap="round"/>
<g fill="#00BFC2" opacity=".65"><circle cx="516" cy="230" r="4"/><circle cx="540" cy="250" r="4"/><circle cx="511" cy="274" r="4"/><circle cx="546" cy="304" r="4"/><circle cx="516" cy="330" r="4"/></g>
</svg>
