<svg xmlns="http://www.w3.org/2000/svg" viewBox="0 0 600 450">
<defs><linearGradient id="g" x1="0" y1="450" x2="600" y2="0"><stop stop-color="#0B332B"/><stop offset="1" stop-color="#1E5F4E"/></linearGradient></defs>
<rect width="600" height="450" fill="url(#g)"/>
<polygon points="26,86 231,34 265,170 54,216" fill="#2F8062"/><polygon points="370,33 574,70 532,210 340,158" fill="#EFE3D1"/>
<rect x="78" y="138" width="142" height="78" rx="14" fill="#F6F3EB" stroke="#111111" stroke-width="6"/><text x="117" y="188" font-family="sans-serif" font-size="30" font-weight="700" fill="#0B332B">IF</text>
<rect x="365" y="239" width="162" height="78" rx="14" fill="#F2C14E" stroke="#111111" stroke-width="6"/><text x="397" y="289" font-family="sans-serif" font-size="29" font-weight="700" fill="#0B332B">THEN</text>
<circle cx="292" cy="230" r="46" fill="#FFFFFF" stroke="#111111" stroke-width="6"/><path d="M292 196v68M258 230h68" stroke="#00BFC2" stroke-width="8" stroke-linecap="round"/>
<path d="M220 177c53 6 91 24 114 53M338 231c36 9 57 23 76 50" fill="none" stroke="#00BFC2" stroke-width="6" stroke-dasharray="8 10" stroke-linecap="round"/>
<circle cx="220" cy="177" r="9" fill="#F2C14E"/><circle cx="338" cy="231" r="9" fill="#F2C14E"/><circle cx="414" cy="281" r="9" fill="#F6F3EB"/>
<path d="M123 286l31 18-17 7 17 29-14 8-17-29-14 15z" fill="#00BFC2" stroke="#111111" stroke-width="4" stroke-linejoin="round"/>
<path d="M431 123c16-19 46-19 62 0s16 49 0 68c-16 19-46 19-62 0s-16-49 0-68z" fill="none" stroke="#00BFC2" stroke-width="5"/>
<path d="M461 98v28M461 188v28M421 157h-28M529 157h-28" stroke="#F2C14E" stroke-width="6" stroke-linecap="round"/>
<g fill="#00BFC2" opacity=".7"><circle cx="80" cy="344" r="4"/><circle cx="105" cy="369" r="4"/><circle cx="130" cy="352" r="4"/><circle cx="553" cy="342" r="4"/><circle cx="524" cy="367" r="4"/></g>
</svg>
