<svg xmlns="http://www.w3.org/2000/svg" viewBox="0 0 600 450">
<defs><linearGradient id="g" x1="0" y1="450" x2="600" y2="0"><stop stop-color="#0B332B"/><stop offset="1" stop-color="#1E5F4E"/></linearGradient></defs>
<rect width="600" height="450" fill="url(#g)"/>
<polygon points="22,72 236,22 274,151 68,188" fill="#EFE3D1" opacity=".9"/>
<polygon points="382,38 566,76 532,214 346,184" fill="#2F8062"/>
<polygon points="52,332 258,284 286,428 28,420" fill="#F2C14E"/>
<path d="M230 319c-54 0-98-43-98-96 0-54 38-96 92-103 44-5 86 18 105 55 17 33 12 73-11 101h60v43z" fill="#F6F3EB"/>
<path d="M214 135c-34 19-47 54-37 90 8 31 33 52 62 57" fill="none" stroke="#111111" stroke-width="7" stroke-linecap="round"/>
<text x="219" y="224" font-family="sans-serif" font-size="52" font-weight="700" fill="#0B332B">AI</text>
<circle cx="350" cy="145" r="8" fill="#00BFC2"/><circle cx="403" cy="111" r="6" fill="#00BFC2"/><circle cx="432" cy="181" r="7" fill="#F2C14E"/>
<path d="M350 145l53-34 29 70-82-36 82 36" fill="none" stroke="#00BFC2" stroke-width="3" stroke-linecap="round"/>
<rect x="338" y="260" width="178" height="76" rx="10" fill="#FFFFFF"/>
<rect x="355" y="277" width="92" height="10" fill="#0B332B"/><rect x="355" y="300" width="126" height="8" fill="#2F8062"/><rect x="355" y="321" width="58" height="8" fill="#F2C14E"/>
<path d="M493 360l30 16-16 7 15 25-13 7-15-25-13 13z" fill="#00BFC2" stroke="#111111" stroke-width="3" stroke-linejoin="round"/>
<path d="M392 235c18-16 36-23 58-21" fill="none" stroke="#F2C14E" stroke-width="4" stroke-dasharray="7 9" stroke-linecap="round"/>
<g fill="#00BFC2" opacity=".75"><circle cx="77" cy="255" r="4"/><circle cx="101" cy="248" r="4"/><circle cx="124" cy="263" r="4"/><circle cx="91" cy="281" r="4"/><circle cx="139" cy="295" r="4"/><circle cx="111" cy="314" r="4"/><circle cx="159" cy="238" r="4"/></g>
</svg>
