<svg xmlns="http://www.w3.org/2000/svg" viewBox="0 0 600 450">
<defs><linearGradient id="g" x1="0" y1="0" x2="600" y2="450"><stop stop-color="#1E5F4E"/><stop offset="1" stop-color="#0B332B"/></linearGradient></defs>
<rect width="600" height="450" fill="url(#g)"/>
<polygon points="35,66 226,20 268,176 58,199" fill="#EFE3D1"/><polygon points="381,20 566,74 534,208 342,150" fill="#F2C14E"/>
<path d="M278 96c-62 0-103 42-103 95 0 35 18 61 46 78 12 7 16 20 16 34h82c0-16 6-27 20-38 25-19 39-43 39-74 0-53-39-95-100-95z" fill="#F6F3EB" stroke="#111111" stroke-width="7"/>
<path d="M239 333h80M249 360h60" stroke="#111111" stroke-width="8" stroke-linecap="round"/>
<path d="M250 214c15-35 45-35 58 0" fill="none" stroke="#F2C14E" stroke-width="8" stroke-linecap="round"/>
<rect x="88" y="271" width="75" height="58" rx="6" fill="#F2C14E" transform="rotate(-8 126 300)"/><rect x="419" y="105" width="78" height="58" rx="6" fill="#FF6B4A" transform="rotate(9 458 134)"/><rect x="423" y="248" width="86" height="66" rx="6" fill="#FFFFFF"/>
<path d="M106 297h40M438 130h43M442 273h46M442 295h28" stroke="#0B332B" stroke-width="5" stroke-linecap="round"/>
<path d="M95 200c42-38 84-45 125-21" fill="none" stroke="#00BFC2" stroke-width="5" stroke-dasharray="7 10" stroke-linecap="round"/>
<path d="M111 185l-25 22 33 2" fill="none" stroke="#00BFC2" stroke-width="5" stroke-linecap="round" stroke-linejoin="round"/>
<path d="M390 347c31 28 74 29 112 2" fill="none" stroke="#F2C14E" stroke-width="6" stroke-linecap="round"/>
<circle cx="435" cy="340" r="20" fill="#EFE3D1" stroke="#111111" stroke-width="5"/><circle cx="485" cy="336" r="20" fill="#EFE3D1" stroke="#111111" stroke-width="5"/>
<g fill="#00BFC2"><circle cx="524" cy="239" r="4"/><circle cx="548" cy="222" r="4"/><circle cx="558" cy="258" r="4"/><circle cx="533" cy="284" r="4"/></g>
</svg>
