<svg xmlns="http://www.w3.org/2000/svg" viewBox="0 0 300 300">
<polygon points="34,92 158,38 252,112 220,238 55,251" fill="#F6F3EB"/>
<rect x="46" y="62" width="86" height="84" rx="10" fill="#EFE3D1" stroke="#111111" stroke-width="5"/>
<path d="M46 88h86M69 62v24M109 62v24" stroke="#111111" stroke-width="5" stroke-linecap="round"/>
<rect x="64" y="105" width="18" height="16" fill="#00BFC2"/><rect x="94" y="105" width="18" height="16" fill="#F2C14E"/>
<path d="M93 184h122" stroke="#111111" stroke-width="6" stroke-linecap="round"/><path d="M115 184v52M193 184v52" stroke="#111111" stroke-width="6" stroke-linecap="round"/>
<rect x="82" y="151" width="62" height="44" rx="8" fill="#2F8062"/><rect x="166" y="151" width="62" height="44" rx="8" fill="#1E5F4E"/>
<path d="M219 65c22 0 39 16 39 37 0 28-39 70-39 70s-39-42-39-70c0-21 17-37 39-37z" fill="#FF6B4A" stroke="#111111" stroke-width="5"/>
<circle cx="219" cy="103" r="13" fill="#F6F3EB"/>
<rect x="38" y="225" width="60" height="25" rx="12" fill="#F2C14E"/><rect x="110" y="225" width="60" height="25" rx="12" fill="#00BFC2"/><rect x="182" y="225" width="60" height="25" rx="12" fill="#FFFFFF" stroke="#111111" stroke-width="4"/>
</svg>
