<svg xmlns="http://www.w3.org/2000/svg" viewBox="0 0 300 300">
<polygon points="28,82 152,34 230,90 198,226 58,246" fill="#EFE3D1"/>
<rect x="58" y="105" width="176" height="104" rx="12" fill="#F6F3EB" stroke="#111111" stroke-width="5"/>
<rect x="78" y="124" width="70" height="48" fill="#0B332B"/><text x="94" y="158" font-family="sans-serif" font-size="24" font-weight="700" fill="#F2C14E">AI</text>
<rect x="162" y="126" width="48" height="8" fill="#2F8062"/><rect x="162" y="146" width="58" height="8" fill="#00BFC2"/><rect x="162" y="166" width="34" height="8" fill="#FF6B4A"/>
<path d="M40 219h212l-20 30H60z" fill="#1E5F4E" stroke="#111111" stroke-width="5" stroke-linejoin="round"/>
<path d="M86 234h82" stroke="#F2C14E" stroke-width="5" stroke-linecap="round"/>
<path d="M67 80h64v70H67z" fill="#F2C14E" stroke="#111111" stroke-width="5"/><path d="M131 80h50v70h-50z" fill="#FFFFFF" stroke="#111111" stroke-width="5"/>
<path d="M83 100h31M147 101h20M147 122h18" stroke="#0B332B" stroke-width="4" stroke-linecap="round"/>
<path d="M233 58l7 17 17 6-17 7-7 17-7-17-17-7 17-6z" fill="#00BFC2"/>
<rect x="205" y="46" width="54" height="38" rx="6" fill="#FFFFFF" stroke="#111111" stroke-width="4"/><path d="M216 59h31M216 72h20" stroke="#0B332B" stroke-width="3" stroke-linecap="round"/>
</svg>
