<svg xmlns="http://www.w3.org/2000/svg" viewBox="0 0 800 450">
  <g transform="translate(400 0)">
    <circle cx="244" cy="214" r="118" fill="none" stroke="#00BFC2" stroke-width="3" stroke-dasharray="10 12" opacity=".8"/>
    <polygon points="52,326 190,292 229,401 81,420" fill="#FF6B4A" opacity=".9"/>
    <polygon points="290,58 374,78 343,142 268,124" fill="#F6F3EB" opacity=".9"/>
    <g fill="#F2C14E" opacity=".9">
      <circle cx="300" cy="295" r="3"/><circle cx="320" cy="295" r="3"/><circle cx="340" cy="295" r="3"/><circle cx="360" cy="295" r="3"/>
      <circle cx="300" cy="315" r="3"/><circle cx="320" cy="315" r="3"/><circle cx="340" cy="315" r="3"/><circle cx="360" cy="315" r="3"/>
      <circle cx="300" cy="335" r="3"/><circle cx="320" cy="335" r="3"/><circle cx="340" cy="335" r="3"/><circle cx="360" cy="335" r="3"/>
    </g>
    <ellipse cx="129" cy="352" rx="92" ry="24" fill="#F6F3EB" opacity=".95"/>
    <path d="M58 352h142M84 352l-18 52M172 352l22 52" stroke="#111111" stroke-width="5" stroke-linecap="round"/>
    <g fill="#F6F3EB" stroke="#111111" stroke-width="4">
      <circle cx="78" cy="321" r="15"/><circle cx="128" cy="313" r="15"/><circle cx="178" cy="322" r="15"/>
      <path d="M60 347c5-15 31-16 37 0M110 340c6-14 31-14 37 0M160 348c6-15 30-15 37 0" fill="#F6F3EB"/>
    </g>
    <g stroke="#111111" stroke-width="3">
      <rect x="96" y="78" width="82" height="60" rx="5" fill="#F2C14E" transform="rotate(-8 137 108)"/>
      <rect x="141" y="110" width="86" height="61" rx="5" fill="#F6F3EB" transform="rotate(7 184 140)"/>
      <rect x="198" y="84" width="76" height="58" rx="5" fill="#00BFC2" transform="rotate(-5 236 113)"/>
      <rect x="227" y="135" width="86" height="60" rx="5" fill="#EFE3D1" transform="rotate(9 270 165)"/>
    </g>
    <path d="M106 260l58-44 49 24 76-92 55 25" fill="none" stroke="#F2C14E" stroke-width="8" stroke-linecap="round" stroke-linejoin="round"/>
    <path d="M327 149l22 8-16 17" fill="none" stroke="#F2C14E" stroke-width="8" stroke-linecap="round" stroke-linejoin="round"/>
    <path d="M272 306c-26-30 0-88 56-121 11 63-12 113-56 121z" fill="#F6F3EB" stroke="#111111" stroke-width="5" stroke-linejoin="round"/>
    <path d="M300 211l31 31" stroke="#00BFC2" stroke-width="6" stroke-linecap="round"/>
    <circle cx="312" cy="224" r="12" fill="#F2C14E" stroke="#111111" stroke-width="4"/>
    <path d="M271 306l-31 28 15-44zM291 311l-3 44 29-31z" fill="#FF6B4A" stroke="#111111" stroke-width="4" stroke-linejoin="round"/>
    <path d="M244 333c-17 14-25 29-29 49" stroke="#F2C14E" stroke-width="8" stroke-linecap="round"/>
    <path d="M81 204c33-42 91-63 145-53 45 8 80 33 103 72" fill="none" stroke="#00BFC2" stroke-width="3" stroke-dasharray="8 10" stroke-linecap="round"/>
    <g fill="#F6F3EB" stroke="#111111" stroke-width="4">
      <path d="M69 167c0-20 16-36 36-36s36 16 36 36c0 15-9 28-22 33v15H91v-15c-13-5-22-18-22-33z"/>
      <path d="M92 232h26" fill="none"/>
    </g>
    <g stroke="#00BFC2" stroke-width="4" stroke-linecap="round">
      <path d="M254 71l45 41 45-22 36 46" fill="none"/>
      <circle cx="254" cy="71" r="6" fill="#F6F3EB"/><circle cx="299" cy="112" r="6" fill="#F6F3EB"/><circle cx="344" cy="90" r="6" fill="#F6F3EB"/><circle cx="380" cy="136" r="6" fill="#F6F3EB"/>
    </g>
  </g>
</svg>
