<svg xmlns="http://www.w3.org/2000/svg" viewBox="0 0 240 200">
  <polygon points="39,42 181,24 210,139 64,170" fill="#EFE3D1" opacity=".7"/>
  <polygon points="30,111 82,95 96,144 42,159" fill="#FF6B4A" opacity=".92"/>
  <circle cx="119" cy="89" r="43" fill="#F2C14E"/>
  <path d="M99 89l14 14 29-36" fill="none" stroke="#FFFFFF" stroke-width="11" stroke-linecap="round" stroke-linejoin="round"/>
  <rect x="48" y="61" width="62" height="86" rx="7" fill="#FFFFFF" stroke="#111111" stroke-width="4"/>
  <path d="M64 83h29M64 104h29M64 125h22" stroke="#1E5F4E" stroke-width="4" stroke-linecap="round"/>
  <path d="M55 82l5 5 8-10M55 103l5 5 8-10" fill="none" stroke="#00BFC2" stroke-width="3" stroke-linecap="round" stroke-linejoin="round"/>
  <path d="M158 139c-15-17 0-50 32-70 6 37-8 66-32 70z" fill="#FFFFFF" stroke="#111111" stroke-width="4" stroke-linejoin="round"/>
  <path d="M174 87l18 18" stroke="#00BFC2" stroke-width="4" stroke-linecap="round"/>
  <circle cx="181" cy="94" r="7" fill="#F2C14E" stroke="#111111" stroke-width="3"/>
  <path d="M159 139l-18 17 8-27zM170 142l-1 26 18-19z" fill="#FF6B4A" stroke="#111111" stroke-width="3" stroke-linejoin="round"/>
  <path d="M147 70h29v29M147 99l29-29" fill="none" stroke="#0B332B" stroke-width="5" stroke-linecap="round" stroke-linejoin="round"/>
  <g fill="#F2C14E"><circle cx="42" cy="45" r="4"/><circle cx="204" cy="55" r="3"/><circle cx="130" cy="164" r="4"/></g>
  <g fill="#00BFC2"><circle cx="204" cy="125" r="3"/><circle cx="31" cy="93" r="3"/></g>
  <path d="M34 79c21-22 48-33 83-34M148 160c20-6 39-17 57-33" fill="none" stroke="#00BFC2" stroke-width="3" stroke-dasharray="5 8" stroke-linecap="round"/>
</svg>
